<?xml version="1.0" standalone="no"?>
<!DOCTYPE svg PUBLIC "-//W3C//DTD SVG 20010904//EN"
 "http://www.w3.org/TR/2001/REC-SVG-20010904/DTD/svg10.dtd">
<svg version="1.0" xmlns="http://www.w3.org/2000/svg"
 width="300.000000pt" height="300.000000pt" viewBox="0 0 300.000000 300.000000"
 preserveAspectRatio="xMidYMid meet">
<metadata>
Created by potrace 1.11, written by Peter Selinger 2001-2013
</metadata>
<g transform="translate(0.000000,300.000000) scale(0.100000,-0.100000)"
fill="#000000" stroke="none">
<path d="M1182 2578 c-33 -84 -107 -265 -162 -403 -173 -427 -367 -907 -497
-1230 -68 -171 -128 -319 -133 -330 -9 -19 -77 -188 -121 -297 l-19 -48 234 0
234 0 66 162 c36 90 108 267 159 393 l93 230 465 3 466 2 10 -32 c13 -40 301
-750 306 -755 2 -2 108 -2 235 -1 l230 3 -55 135 c-30 74 -115 286 -190 470
-75 184 -143 355 -153 380 -9 25 -47 117 -83 205 -35 88 -111 275 -167 415
-56 140 -110 273 -120 295 -9 22 -64 156 -120 298 l-104 257 -256 0 -256 0
-62 -152z m328 -393 c0 -8 4 -23 10 -33 10 -19 29 -64 121 -294 33 -84 67
-166 74 -183 8 -16 30 -73 50 -125 21 -52 39 -98 41 -102 2 -3 -135 -6 -305
-6 l-309 -1 85 212 c47 117 91 226 98 242 8 17 38 92 67 167 49 127 68 161 68
123z"/>
</g>
</svg>
